HIERARCHY
ROOT joint_0
{
	OFFSET 0.000000 0.000000 0.000000
	CHANNELS 6 Xposition Yposition Zposition Zrotation Yrotation Xrotation 
	JOINT joint_1
	{
		OFFSET 3.886261 -0.864090 119.041016
		CHANNELS 3 Zrotation Yrotation Xrotation
		JOINT joint_2
		{
			OFFSET -8.814819 -1.400200 108.366943
			CHANNELS 3 Zrotation Yrotation Xrotation
			JOINT joint_3
			{
				OFFSET -10.127777 -1.846550 108.123047
				CHANNELS 3 Zrotation Yrotation Xrotation
				JOINT joint_4
				{
					OFFSET -0.104309 -2.852760 150.227051
					CHANNELS 3 Zrotation Yrotation Xrotation
					JOINT joint_5
					{
						OFFSET 20.206146 2.292160 92.163940
						CHANNELS 3 Zrotation Yrotation Xrotation
						End Site
						{
							OFFSET 0.000000 0.000000 0.000000
						}
					}
				}
				JOINT joint_6
				{
					OFFSET 0.345886 -34.260384 83.589966
					CHANNELS 3 Zrotation Yrotation Xrotation
					JOINT joint_7
					{
						OFFSET -3.824402 -146.174217 -19.015991
						CHANNELS 3 Zrotation Yrotation Xrotation
						JOINT joint_8
						{
							OFFSET 134.098145 -24.802032 -261.230957
							CHANNELS 3 Zrotation Yrotation Xrotation
							JOINT joint_9
							{
								OFFSET 123.899048 209.340523 59.187012
								CHANNELS 3 Zrotation Yrotation Xrotation
								End Site
								{
									OFFSET 0.000000 0.000000 0.000000
								}
							}
						}
					}
				}
				JOINT joint_10
				{
					OFFSET -0.423798 31.098438 84.831055
					CHANNELS 3 Zrotation Yrotation Xrotation
					JOINT joint_11
					{
						OFFSET 3.093201 146.891491 -12.504028
						CHANNELS 3 Zrotation Yrotation Xrotation
						JOINT joint_12
						{
							OFFSET 195.631927 -20.967743 -219.380981
							CHANNELS 3 Zrotation Yrotation Xrotation
							JOINT joint_13
							{
								OFFSET -8.651001 -247.511261 -36.616089
								CHANNELS 3 Zrotation Yrotation Xrotation
								End Site
								{
									OFFSET 0.000000 0.000000 0.000000
								}
							}
						}
					}
				}
			}
		}
	}
	JOINT joint_14
	{
		OFFSET 6.948090 -87.642914 -106.942017
		CHANNELS 3 Zrotation Yrotation Xrotation
		JOINT joint_15
		{
			OFFSET -34.394226 4.543823 -458.972961
			CHANNELS 3 Zrotation Yrotation Xrotation
			JOINT joint_16
			{
				OFFSET -17.051544 6.964645 -485.636009
				CHANNELS 3 Zrotation Yrotation Xrotation
				JOINT joint_17
				{
					OFFSET 190.520630 40.462875 -83.888000
					CHANNELS 3 Zrotation Yrotation Xrotation
					End Site
					{
						OFFSET 0.000000 0.000000 0.000000
					}
				}
			}
		}
	}
	JOINT joint_18
	{
		OFFSET 3.929901 87.535423 -107.188965
		CHANNELS 3 Zrotation Yrotation Xrotation
		JOINT joint_19
		{
			OFFSET -34.463440 -10.383845 -458.873047
			CHANNELS 3 Zrotation Yrotation Xrotation
			JOINT joint_20
			{
				OFFSET 14.641205 -11.071349 -485.637978
				CHANNELS 3 Zrotation Yrotation Xrotation
				JOINT joint_21
				{
					OFFSET 194.569275 -4.161928 -84.249998
					CHANNELS 3 Zrotation Yrotation Xrotation
					End Site
					{
						OFFSET 0.000000 0.000000 0.000000
					}
				}
			}
		}
	}
}
MOTION
Frames: 17
Frame Time: 0.016667
-68.689766 -81.824425 1170.583008 12.897086 6.263087 0.158116 1.967565 -11.892159 -6.075833 2.669978 0.931016 1.204309 2.336542 -2.930275 -1.169344 1.613743 -1.455139 -8.343105 0.000000 0.000000 0.000000 0.115540 9.545050 2.935092 -3.682987 20.811236 -0.601181 -55.137365 12.295118 -81.809089 0.000000 0.000000 0.000000 -1.931969 14.256875 -1.945200 40.309059 18.338162 19.181536 44.045390 -20.208448 14.795053 0.000000 0.000000 0.000000 -11.935371 -5.807570 -2.767242 -11.786154 13.029644 -4.262523 -12.731521 -1.341999 -4.994714 0.000000 0.000000 0.000000 -5.333103 -15.783139 8.697021 -4.760594 21.699572 -5.510691 -3.491265 -9.463660 -1.637088 0.000000 0.000000 0.000000 
-64.160957 -78.053642 1169.453003 13.017847 6.529807 0.134606 1.908765 -11.978321 -6.541078 2.712360 0.927685 1.289115 2.364831 -2.953921 -1.239780 1.603848 -1.533388 -8.235697 0.000000 0.000000 0.000000 0.253484 9.083733 2.912902 -4.162525 20.655811 -0.377594 -55.583044 12.347676 -81.563553 0.000000 0.000000 0.000000 -1.585109 14.432159 -2.122889 40.477446 18.591876 19.191041 44.223652 -20.990463 14.311962 0.000000 0.000000 0.000000 -11.948952 -6.010415 -2.781512 -11.768126 13.382973 -4.513009 -12.768537 -1.533265 -4.953127 0.000000 0.000000 0.000000 -5.446944 -16.464830 9.122347 -4.780528 20.053878 -4.965506 -3.681001 -8.169265 -1.693181 0.000000 0.000000 0.000000 
-59.715683 -74.192291 1168.345947 13.323851 6.504931 0.036359 1.814857 -11.749423 -6.965420 2.707459 0.942216 1.378963 2.345194 -2.910142 -1.313150 1.594866 -1.566902 -8.156718 0.000000 0.000000 0.000000 0.369779 8.671168 2.978966 -4.979827 20.545068 -0.393572 -55.965239 12.602603 -80.815111 0.000000 0.000000 0.000000 -1.324064 14.689498 -2.311638 40.514538 18.886105 19.129255 44.523079 -22.105616 13.880190 0.000000 0.000000 0.000000 -12.005675 -5.903096 -2.776664 -11.782075 13.812189 -4.778469 -12.834740 -1.683307 -4.929349 0.000000 0.000000 0.000000 -5.839229 -16.867784 9.532540 -5.082261 18.086489 -4.284372 -4.223392 -6.371186 -1.886433 0.000000 0.000000 0.000000 
-55.374828 -69.807068 1166.951050 13.527930 6.401286 -0.118968 1.777769 -11.434066 -7.237225 2.710521 0.950629 1.440581 2.337230 -2.846969 -1.368297 1.585535 -1.527528 -8.086770 0.000000 0.000000 0.000000 0.496265 8.321911 3.012459 -5.754676 20.476716 -0.472893 -56.272263 12.887690 -80.084544 0.000000 0.000000 0.000000 -1.061577 15.048423 -2.509981 40.291790 19.241506 19.025992 44.865965 -23.523566 13.618364 0.000000 0.000000 0.000000 -12.041260 -5.754211 -2.768653 -11.781369 14.330156 -5.045790 -12.904788 -1.933736 -4.883005 0.000000 0.000000 0.000000 -6.390240 -17.209972 9.993570 -5.565827 16.185288 -3.661742 -4.951218 -4.530971 -2.155507 0.000000 0.000000 0.000000 
-51.042049 -64.544327 1165.124023 13.480721 6.362506 -0.300156 1.848447 -11.214618 -7.319256 2.761932 0.940943 1.472648 2.382372 -2.795902 -1.389662 1.575066 -1.380184 -8.021009 0.000000 0.000000 0.000000 0.645200 8.067122 2.926054 -6.267935 20.477928 -0.496619 -56.502421 13.080216 -79.676245 0.000000 0.000000 0.000000 -0.743853 15.544140 -2.707484 39.657436 19.694272 18.880461 45.205263 -25.295405 13.647677 0.000000 0.000000 0.000000 -12.024472 -5.712633 -2.798621 -11.747383 14.901946 -5.283549 -12.969602 -2.383411 -4.790307 0.000000 0.000000 0.000000 -7.055051 -17.633999 10.538970 -6.198187 14.562582 -3.188107 -5.796761 -3.058781 -2.480142 0.000000 0.000000 0.000000 
-46.708736 -58.570469 1162.984985 13.285306 6.308824 -0.516156 1.994200 -11.007027 -7.251184 2.842952 0.922242 1.485905 2.460501 -2.739937 -1.384713 1.562704 -1.128923 -7.963923 0.000000 0.000000 0.000000 0.805546 7.901052 2.765218 -6.665000 20.550207 -0.528448 -56.658995 13.246437 -79.393627 0.000000 0.000000 0.000000 -0.407703 16.169465 -2.921680 38.602260 20.232971 18.714751 45.565332 -27.521519 13.952054 0.000000 0.000000 0.000000 -11.976922 -5.678687 -2.857060 -11.695540 15.519281 -5.500910 -13.039306 -2.969196 -4.668443 0.000000 0.000000 0.000000 -7.884973 -18.044732 11.156676 -7.035211 13.060836 -2.747148 -6.824448 -1.823255 -2.885664 0.000000 0.000000 0.000000 
-42.858364 -52.172890 1160.243042 12.884333 6.238780 -0.761238 2.192159 -10.746706 -7.036326 2.929498 0.907403 1.457165 2.549969 -2.669962 -1.352443 1.547281 -0.857440 -7.899049 0.000000 0.000000 0.000000 1.014201 7.721605 2.541971 -6.869364 20.600539 -0.553575 -56.825985 13.329830 -79.363435 0.000000 0.000000 0.000000 -0.051417 16.823274 -3.171477 37.276933 20.783482 18.605532 45.890409 -29.996710 14.469971 0.000000 0.000000 0.000000 -11.884748 -5.809515 -2.909478 -11.601457 16.380619 -5.790205 -13.126997 -3.698124 -4.519594 0.000000 0.000000 0.000000 -8.699069 -18.547998 11.817071 -7.885000 12.006082 -2.476447 -7.817557 -0.858878 -3.280947 0.000000 0.000000 0.000000 
-39.840614 -45.389194 1156.584961 12.205356 6.153802 -1.012616 2.428432 -10.398231 -6.658850 3.013074 0.902432 1.361644 2.647621 -2.583676 -1.273878 1.524636 -0.607394 -7.796782 0.000000 0.000000 0.000000 1.305663 7.467840 2.204864 -6.791858 20.566438 -0.516603 -57.076312 13.260327 -79.717463 0.000000 0.000000 0.000000 0.341694 17.467261 -3.472515 35.782137 21.332559 18.532123 46.157672 -32.537003 15.135207 0.000000 0.000000 0.000000 -11.738597 -6.230890 -2.944644 -11.448575 17.624324 -6.237779 -13.260334 -4.592411 -4.348169 0.000000 0.000000 0.000000 -9.410571 -19.205540 12.525832 -8.647672 11.482495 -2.551008 -8.685528 -0.097315 -3.625974 0.000000 0.000000 0.000000 
-37.472935 -38.110760 1152.125000 11.273005 6.046968 -1.260266 2.701365 -9.972588 -6.138385 3.109519 0.897374 1.209659 2.770242 -2.482673 -1.145735 1.494434 -0.349977 -7.661298 0.000000 0.000000 0.000000 1.660707 7.176658 1.751415 -6.464403 20.482150 -0.425888 -57.379783 13.066292 -80.402690 0.000000 0.000000 0.000000 0.768303 18.124698 -3.823723 33.994985 21.915670 18.481494 46.352054 -35.227791 16.036493 0.000000 0.000000 0.000000 -11.536050 -6.879511 -2.980502 -11.240447 19.165324 -6.816203 -13.451812 -5.620056 -4.165027 0.000000 0.000000 0.000000 -10.077638 -19.966891 13.298765 -9.392169 11.322787 -2.940602 -9.522719 0.465061 -3.960439 0.000000 0.000000 0.000000 
-35.622143 -31.003500 1147.373047 10.294731 5.932586 -1.499614 2.951681 -9.456456 -5.713896 3.195156 0.892698 1.099346 2.876220 -2.349093 -1.042019 1.476662 -0.143738 -7.583277 0.000000 0.000000 0.000000 2.031196 6.811730 1.426303 -6.034019 20.356013 -0.453776 -57.672849 12.892665 -81.238222 0.000000 0.000000 0.000000 1.164490 18.660860 -4.150170 31.903483 22.426304 18.670661 46.307993 -38.001019 17.412926 0.000000 0.000000 0.000000 -11.272241 -7.700930 -3.034145 -10.983325 20.963236 -7.407775 -13.681967 -6.656212 -3.990043 0.000000 0.000000 0.000000 -10.494445 -21.001047 13.957062 -9.899369 12.173041 -3.599503 -10.121847 0.359820 -4.202058 0.000000 0.000000 0.000000 
-34.425785 -24.471762 1142.385010 9.334856 5.794565 -1.741335 3.155604 -8.788748 -5.556365 3.251994 0.894493 1.112484 2.929066 -2.160571 -1.026317 1.491708 -0.072993 -7.644691 0.000000 0.000000 0.000000 2.417042 6.290056 1.443489 -5.582389 20.160853 -0.794726 -57.936882 12.847498 -82.147204 0.000000 0.000000 0.000000 1.521352 18.985737 -4.410792 29.589014 22.757564 19.266843 45.830404 -40.595993 19.378001 0.000000 0.000000 0.000000 -10.917087 -8.724981 -3.117025 -10.657578 23.140859 -7.948457 -13.944451 -7.690302 -3.821701 0.000000 0.000000 0.000000 -10.432295 -22.576031 14.326373 -9.928463 14.947109 -4.594209 -10.287170 -0.906604 -4.270838 0.000000 0.000000 0.000000 
-33.936020 -18.256794 1136.963989 8.208960 5.566866 -2.029069 3.366680 -7.875769 -5.502347 3.317996 0.854427 1.179503 2.976524 -1.923687 -1.080145 1.534717 -0.125738 -7.813148 0.000000 0.000000 0.000000 2.845901 5.628513 1.728051 -5.056754 19.892222 -1.404715 -58.208116 12.895385 -83.190555 0.000000 0.000000 0.000000 1.866092 19.170292 -4.632560 27.070932 22.954656 20.185388 44.897498 -42.832723 21.875056 0.000000 0.000000 0.000000 -10.427308 -9.911514 -3.175098 -10.217805 25.690502 -8.486827 -14.239897 -8.691059 -3.662796 0.000000 0.000000 0.000000 -9.922863 -24.523343 14.507356 -9.552612 19.360535 -5.867935 -10.145878 -2.921504 -4.209674 0.000000 0.000000 0.000000 
-33.162498 -12.555497 1132.369995 7.200558 5.338304 -2.328505 3.551126 -6.933742 -5.456664 3.394939 0.744647 1.217795 3.039755 -1.707738 -1.152696 1.577135 -0.124722 -7.975870 0.000000 0.000000 0.000000 3.192968 5.106527 2.059693 -4.532861 19.693730 -1.917986 -58.429050 12.977876 -84.163537 0.000000 0.000000 0.000000 2.082002 19.384666 -4.731246 23.817961 23.188526 21.340594 43.452091 -44.999788 25.403589 0.000000 0.000000 0.000000 -9.915646 -10.939313 -3.217074 -9.765528 27.978326 -8.893419 -14.479056 -9.338974 -3.556111 0.000000 0.000000 0.000000 -9.369300 -26.168111 14.681787 -9.152426 23.406770 -6.974774 -10.010383 -4.588033 -4.143386 0.000000 0.000000 0.000000 
-31.390661 -7.638732 1129.501953 6.770010 5.325509 -2.534132 3.632572 -6.331084 -5.531075 3.408684 0.644351 1.240410 3.045508 -1.561397 -1.197458 1.595978 0.082029 -8.057220 0.000000 0.000000 0.000000 3.356522 4.926316 2.285302 -4.072254 19.677564 -2.027555 -58.537114 13.033856 -84.915931 0.000000 0.000000 0.000000 2.050246 19.783114 -4.641555 19.062248 23.549196 22.833830 41.090451 -46.980813 30.819324 0.000000 0.000000 0.000000 -9.558513 -11.713129 -3.346101 -9.478671 29.590429 -9.029812 -14.627314 -9.547066 -3.519721 0.000000 0.000000 0.000000 -9.156240 -27.361743 14.902507 -9.017357 25.935530 -7.790319 -10.058809 -5.566017 -4.152806 0.000000 0.000000 0.000000 
-28.996130 -3.424336 1127.871948 6.826615 5.517086 -2.662053 3.628134 -6.021063 -5.748685 3.346943 0.583228 1.274617 2.972766 -1.457022 -1.232406 1.598490 0.428446 -8.086212 0.000000 0.000000 0.000000 3.386368 4.983450 2.497769 -3.635583 19.784025 -1.880337 -58.539755 13.080501 -85.531277 0.000000 0.000000 0.000000 1.800133 20.337975 -4.456272 13.205304 23.926345 24.770014 37.559903 -47.703196 37.818316 0.000000 0.000000 0.000000 -9.326114 -12.374090 -3.567121 -9.331542 30.780899 -8.940421 -14.699561 -9.476540 -3.523083 0.000000 0.000000 0.000000 -9.158237 -28.394691 15.088757 -9.017895 27.747961 -8.459305 -10.151743 -6.316327 -4.184644 0.000000 0.000000 0.000000 
-26.253160 0.662248 1127.255981 7.027478 5.749066 -2.788045 3.565333 -5.862775 -5.890218 3.261781 0.553004 1.282553 2.884148 -1.389518 -1.242620 1.588289 0.825579 -8.072272 0.000000 0.000000 0.000000 3.354702 5.180326 2.667649 -3.188004 19.929779 -1.690929 -58.458549 13.151231 -86.109602 0.000000 0.000000 0.000000 1.500071 20.960510 -4.329818 7.843816 24.345539 26.707037 33.737198 -47.015992 44.399881 0.000000 0.000000 0.000000 -9.116500 -12.921716 -3.828637 -9.176405 31.735598 -8.750435 -14.607346 -9.120292 -3.529188 0.000000 0.000000 0.000000 -9.264606 -29.058362 15.210992 -9.037043 28.837457 -8.909721 -10.184416 -6.808969 -4.196260 0.000000 0.000000 0.000000 
-23.254351 5.076943 1127.646973 7.154464 5.907523 -2.968570 3.444840 -5.794180 -5.786119 3.185306 0.552746 1.240733 2.820599 -1.364735 -1.214106 1.571169 1.253424 -8.045428 0.000000 0.000000 0.000000 3.308308 5.477885 2.755506 -2.666831 20.066418 -1.602540 -58.277128 13.283818 -86.763591 0.000000 0.000000 0.000000 1.273388 21.630176 -4.296119 3.513515 24.891104 28.274701 30.359119 -45.752821 49.694796 0.000000 0.000000 0.000000 -8.856093 -13.321585 -4.107237 -8.897151 32.522388 -8.525862 -14.242772 -8.399459 -3.511464 0.000000 0.000000 0.000000 -9.413426 -29.118775 15.247472 -8.990745 29.026880 -9.056712 -10.077985 -6.974321 -4.156112 0.000000 0.000000 0.000000 
